<?xml version="1.0" encoding="UTF-8"?>
<svg id="Layer_1" xmlns="http://www.w3.org/2000/svg" version="1.1" viewBox="0 0 473.79 79.68">
  <!-- Generator: Adobe Illustrator 29.0.0, SVG Export Plug-In . SVG Version: 2.1.0 Build 186)  -->
  <g>
    <path d="M0,.27h17.4v31.48h7.73v15.53h-7.73v31.34H0V.27ZM44.19,39.52l50.96-31.48L78.86.27,30.24,31.75v15.53l48.61,31.34,16.3-7.77-50.96-31.34Z"/>
    <path d="M198.17,53.28v16.08s-16.3,9.4-16.3,9.4h-28.59v-16.08h26.93s0-9.4,0-9.4h17.95ZM180.22,25.07v-9.4s-26.93,0-26.93,0V.14h28.59s15.74,9.4,15.74,9.4v15.53h-17.4ZM153.29,31.75h17.4v15.4h-17.4v-15.4ZM102.19,69.36v-23.85s12.98-6.13,12.98-6.13l-12.98-6.54V9.54S117.94.14,117.94.14h28.59v15.54h-26.93s0,16.08,0,16.08h26.93v15.4h-26.93s0,15.54,0,15.54h26.93v16.08h-28.59s-15.74-9.4-15.74-9.4Z"/>
    <path d="M209.33,0l15.74.14v59.82s28.59-11.72,28.59-11.72v17.72s-28.59,12.67-28.59,12.67h-15.74V0Z"/>
    <path d="M282.87.14v15.54h-43.64V.14h43.64ZM335.35.14l-44.19,78.36h-22.37l36.18-62.82h-15.47V.14h45.85Z"/>
    <path d="M362.55.27v78.36h-17.4V.27h17.4Z"/>
  </g>
  <path d="M378.64.27h15.74l28.45,26.79v20.85l-26.79-25.82v57.59h-17.4V.27ZM456.39,57.31V.27h17.4v79.41h-16.3l-28.45-27.34v-20.16l27.34,25.13Z"/>
</svg>